<svg xmlns="http://www.w3.org/2000/svg" viewBox="0 0 32 32">
  <rect width="32" height="32" fill="#0D0D0D" rx="4"/>
  <path d="M16 3C16 3 21 10 19.5 15C22 12.5 22.5 9 22.5 9C22.5 9 27 14.5 25 21C23 27 19.5 30 16 30C12.5 30 9 27 7 21C5 14.5 9.5 9 9.5 9C9.5 9 10 12.5 12.5 15C11 10 16 3 16 3Z" fill="#FF5014"/>
  <path d="M16 13C16 13 18 16 17.5 18C19 17 19 15.5 19 15.5C19 15.5 20.5 17.5 19.5 20C18.5 22.5 17.5 23 16 23C14.5 23 13.5 22.5 12.5 20C11.5 17.5 13 15.5 13 15.5C13 15.5 13 17 14.5 18C14 16 16 13 16 13Z" fill="#FFB060" opacity="0.85"/>
</svg>
